<?xml version="1.0" encoding="utf-8"?>
<!-- soft_pink_hydroflask.svg
     Photorealistic-style vector approximation of a soft-pink Hydro Flask
     - Matte body with subtle texture
     - Stainless rim
     - Screw cap with grooves and carry loop
     - Soft studio shadow on white backdrop
-->
<svg xmlns="http://www.w3.org/2000/svg" width="300" height="600" viewBox="0 0 600 1200" preserveAspectRatio="xMidYMid meet" role="img" aria-label="Bubblegum Sprite photo-style bottle">
  <defs>
    <!-- Body gradients -->
    <linearGradient id="bodyMain" x1="0" x2="0" y1="0" y2="1">
      <stop offset="0" stop-color="#ffd6df" stop-opacity="1"/>
      <stop offset="0.45" stop-color="#ffc0cc" stop-opacity="1"/>
      <stop offset="1" stop-color="#ffb0c0" stop-opacity="1"/>
    </linearGradient>

    <!-- Vertical subtle specular highlight -->
    <linearGradient id="bodyGloss" x1="0.35" x2="0.65" y1="0" y2="1">
      <stop offset="0" stop-color="#ffffff" stop-opacity="0.85"/>
      <stop offset="0.15" stop-color="#ffffff" stop-opacity="0.45"/>
      <stop offset="0.5" stop-color="#ffffff" stop-opacity="0.18"/>
      <stop offset="1" stop-color="#ffffff" stop-opacity="0"/>
    </linearGradient>

    <!-- Radial for top curvature -->
    <radialGradient id="topCurve" cx="50%" cy="10%" r="60%">
      <stop offset="0" stop-color="#ffffff" stop-opacity="0.6"/>
      <stop offset="1" stop-color="#ffffff" stop-opacity="0"/>
    </radialGradient>

    <!-- Cap gradient (matte plastic) -->
    <linearGradient id="capGrad" x1="0" x2="0" y1="0" y2="1">
      <stop offset="0" stop-color="#ffb3c2"/>
      <stop offset="1" stop-color="#ff98ad"/>
    </linearGradient>

    <!-- Metal rim gradient -->
    <linearGradient id="metalRim" x1="0" x2="1" y1="0" y2="0">
      <stop offset="0" stop-color="#f2f4f5" stop-opacity="1"/>
      <stop offset="0.3" stop-color="#d7d9db" stop-opacity="1"/>
      <stop offset="0.6" stop-color="#f7f8f9" stop-opacity="1"/>
      <stop offset="1" stop-color="#d1d3d4" stop-opacity="1"/>
    </linearGradient>

    <!-- Soft shadow under bottle -->
    <radialGradient id="shadowGrad" cx="50%" cy="30%" r="60%">
      <stop offset="0" stop-color="#000" stop-opacity="0.18"/>
      <stop offset="0.6" stop-color="#000" stop-opacity="0.06"/>
      <stop offset="1" stop-color="#000" stop-opacity="0"/>
    </radialGradient>

    <!-- Very subtle micro-texture (tiny speckle) -->
    <pattern id="microTexture" patternUnits="userSpaceOnUse" width="6" height="6">
      <rect width="6" height="6" fill="transparent"/>
      <circle cx="1.5" cy="1.5" r="0.5" fill="rgba(255,255,255,0.03)"/>
    </pattern>

    <!-- Soft inner shadow filter for depth -->
    <filter id="innerShadow" x="-50%" y="-50%" width="200%" height="200%">
      <feOffset dx="0" dy="6" in="SourceAlpha" result="off"/>
      <feGaussianBlur in="off" stdDeviation="8" result="blur"/>
      <feComposite in="blur" in2="SourceAlpha" operator="out" result="comp"/>
      <feColorMatrix in="comp" type="matrix" values="0 0 0 0 0
                                                      0 0 0 0 0
                                                      0 0 0 0 0
                                                      0 0 0 0.35"/>
      <feBlend in="SourceGraphic" mode="multiply"/>
    </filter>

    <!-- Gentle outer blur for cap highlight -->
    <filter id="softBlur" x="-50%" y="-50%" width="200%" height="200%">
      <feGaussianBlur stdDeviation="3"/>
    </filter>

    <!-- Slight vignette to hint studio lighting -->
    <radialGradient id="vignette" cx="50%" cy="25%" r="80%">
      <stop offset="0" stop-color="#ffffff" stop-opacity="0"/>
      <stop offset="1" stop-color="#f6f4f4" stop-opacity="0.035"/>
    </radialGradient>
  </defs>

  <!-- Background (white studio) -->
  <rect width="100%" height="100%" fill="#ffffff"/>

  <!-- Soft vignette (very subtle) -->
  <rect x="0" y="0" width="600" height="1200" fill="url(#vignette)" />

  <!-- Ground shadow -->
  <ellipse cx="300" cy="1050" rx="190" ry="36" fill="url(#shadowGrad)" />

  <!-- Bottle group -->
  <g id="bottle" transform="translate(0,0)">
    <!-- MAIN BODY SHAPE -->
    <!-- Outer silhouette -->
    <path id="bottle-silhouette"
          d="M170 220
             C170 170 220 120 300 120
             C380 120 430 170 430 220
             L430 860
             C430 920 380 960 300 960
             C220 960 170 920 170 860
             Z"
          fill="url(#bodyMain)"
          stroke="#e9a7b6"
          stroke-opacity="0.08"
          stroke-width="1"/>

    <!-- Matte micro-texture (very subtle) -->
    <path d="M170 220
             C170 170 220 120 300 120
             C380 120 430 170 430 220
             L430 860
             C430 920 380 960 300 960
             C220 960 170 920 170 860
             Z"
          fill="url(#microTexture)" opacity="0.22"/>

    <!-- Top curvature highlight -->
    <path d="M210 210
             C230 160 270 130 300 130
             C330 130 370 160 390 210
             L390 230
             C370 200 330 180 300 180
             C270 180 230 200 210 230
             Z"
          fill="url(#topCurve)" opacity="0.65"/>

    <!-- Vertical specular highlight (gloss) -->
    <path d="M265 210
             C290 160 310 140 330 140
             C350 140 360 160 375 210
             L375 820
             C365 840 350 860 300 860
             C250 860 235 840 225 820
             Z"
          fill="url(#bodyGloss)" opacity="0.55" />

    <!-- subtle darker shading on left for roundness -->
    <path d="M170 220
             C170 170 220 120 300 120
             C380 120 430 170 430 220
             L430 860
             C430 920 380 960 300 960
             C220 960 170 920 170 860
             Z"
          fill="#000000" opacity="0.03" transform="translate(-6,6)"/>

    <!-- faint seam line (manufacturing hint) -->
    <line x1="297" y1="160" x2="297" y2="880" stroke="#ffffff" stroke-opacity="0.02" stroke-width="2"/>

    <!-- Inner depth shadow -->
    <path d="M170 220
             C170 170 220 120 300 120
             C380 120 430 170 430 220
             L430 860
             C430 920 380 960 300 960
             C220 960 170 920 170 860
             Z"
          fill="none" filter="url(#innerShadow)"/>

    <!-- STAINLESS RIM (neck) -->
    <g id="rim" transform="translate(0,0)">
      <!-- top ring (metal) -->
      <ellipse cx="300" cy="230" rx="122" ry="18" fill="url(#metalRim)" stroke="#000" stroke-opacity="0.06" stroke-width="0.6"/>
      <!-- inner ring darker -->
      <ellipse cx="300" cy="234" rx="110" ry="10" fill="#d9d9da" opacity="0.9"/>
      <!-- gap/inner shadow -->
      <ellipse cx="300" cy="246" rx="78" ry="6" fill="#000" opacity="0.06"/>
    </g>

    <!-- CAP GROUP -->
    <g id="cap" transform="translate(0,0)">
      <!-- cap main body -->
      <path d="M210 150
               C220 120 260 108 300 108
               C340 108 380 120 390 150
               L390 200
               C370 210 230 210 210 200
               Z"
            fill="url(#capGrad)" stroke="#e68da3" stroke-width="0.8"/>

      <!-- cap top flat -->
      <ellipse cx="300" cy="108" rx="90" ry="20" fill="#ffb9cb" stroke="#f0a2b8" stroke-width="0.6"/>

      <!-- cap grooves (subtle concentric lines) -->
      <g opacity="0.06" stroke="#000" stroke-linecap="round" stroke-width="2">
        <path d="M230 160 C250 148 350 148 370 160" fill="none"/>
        <path d="M235 150 C255 138 345 138 365 150" fill="none"/>
      </g>

      <!-- cap shadow underside -->
      <ellipse cx="300" cy="198" rx="110" ry="12" fill="#000" opacity="0.04"/>

      <!-- carry loop (smooth arc) -->
      <path d="M372 135
               C420 120 470 150 460 190
               C455 210 430 220 410 214
               C405 212 392 206 374 198
               Z"
            fill="url(#capGrad)" stroke="#e08aa0" stroke-opacity="0.9" stroke-width="0.9" transform="rotate(-14 400 170) translate(-2,6)"/>

      <!-- carry loop inner shading for thickness -->
      <path d="M372 135
               C420 120 470 150 460 190
               C455 210 430 220 410 214
               C405 212 392 206 374 198
               Z"
            fill="#ffffff" opacity="0.03" transform="rotate(-14 400 170) translate(-2,6)"/>
    </g>

    <!-- Cap / Neck transition metallic band (small) -->
    <rect x="230" y="210" width="140" height="8" rx="3" fill="url(#metalRim)" stroke="#000" stroke-opacity="0.04" />

    <!-- subtle highlight on rim edge -->
    <path d="M205 230 C235 220 365 220 395 230" fill="none" stroke="#fff" stroke-opacity="0.18" stroke-width="2" stroke-linecap="round"/>

    <!-- BOTTOM FOOT RING -->
    <ellipse cx="300" cy="960" rx="85" ry="20" fill="#000" opacity="0.035"/>
    <ellipse cx="300" cy="960" rx="62`" ry="14" fill="#ffffff" opacity="0.035"/>

    <!-- small specular highlight near top right -->
    <g opacity="0.6" filter="url(#softBlur)">
      <path d="M345 200
               C350 180 360 170 370 170
               C378 170 385 178 387 192
               C389 206 380 216 370 220
               C360 224 350 224 345 220
               Z"
            fill="#ffffff" opacity="0.9" />
    </g>
  </g>

  <!-- Optional very subtle reflection on ground (faint) -->
  <g opacity="0.06">
    <ellipse cx="300" cy="1006" rx="92" ry="20" fill="#ffffff" />
  </g>

</svg>
